<svg width="26" height="26" viewBox="0 0 26 26" fill="none" xmlns="http://www.w3.org/2000/svg">
<path d="M21.1119 11.9763H23.2098C23.2098 6.7297 19.1473 2.77277 13.7588 2.77277V4.81822C18.0196 4.81822 21.1119 7.82811 21.1119 11.9763Z" fill="#76A4FF"/>
<path d="M13.7691 8.9091C15.975 8.9091 16.916 9.82649 16.916 11.9773H19.0139C19.0139 8.67899 17.152 6.86365 13.7691 6.86365V8.9091ZM17.3586 14.4758C17.1571 14.2972 16.8922 14.2019 16.6199 14.2101C16.3477 14.2183 16.0894 14.3294 15.8995 14.5198L13.3894 17.0367C12.7852 16.9242 11.5705 16.555 10.3202 15.339C9.0698 14.1189 8.69113 12.9315 8.57889 12.3465L11.1583 9.89808C11.3538 9.7131 11.4678 9.46119 11.4763 9.19568C11.4847 8.93016 11.3868 8.67187 11.2034 8.47547L7.3275 4.32013C7.14397 4.1231 6.88891 4.0036 6.61647 3.98698C6.34403 3.97037 6.07567 4.05796 5.8684 4.23115L3.59218 6.13444C3.41083 6.3119 3.30259 6.54809 3.28798 6.79819C3.27225 7.05387 2.97225 13.1105 7.78903 17.8089C11.9911 21.9049 17.2548 22.2046 18.7044 22.2046C18.9163 22.2046 19.0464 22.1984 19.081 22.1964C19.3375 22.1824 19.5796 22.0764 19.7607 21.8988L21.7118 19.6784C21.8895 19.4765 21.9795 19.2149 21.9627 18.9493C21.9458 18.6836 21.8235 18.4349 21.6216 18.2558L17.3586 14.4758Z" fill="#76A4FF"/>
</svg>
