<svg width="40" height="40" viewBox="0 0 40 40" fill="none" xmlns="http://www.w3.org/2000/svg">
<path d="M25.5537 14.4467C26.9975 14.4033 28.3676 13.7994 29.3735 12.7628C30.3795 11.7262 30.9421 10.3386 30.9421 8.89417C30.9421 7.44975 30.3795 6.06213 29.3735 5.02556C28.3676 3.98899 26.9975 3.385 25.5537 3.34167H14.4471C13.0033 3.385 11.6332 3.98899 10.6272 5.02556C9.62132 6.06213 9.0587 7.44975 9.0587 8.89417C9.0587 10.3386 9.62132 11.7262 10.6272 12.7628C11.6332 13.7994 13.0033 14.4033 14.4471 14.4467C12.9907 14.4719 11.6025 15.0682 10.5814 16.107C9.56041 17.1459 8.98828 18.5442 8.98828 20.0008C8.98828 21.4575 9.56041 22.8558 10.5814 23.8947C11.6025 24.9335 12.9907 25.5298 14.4471 25.555C12.9978 25.5905 11.6198 26.1912 10.6073 27.2288C9.59487 28.2663 9.02813 29.6586 9.02813 31.1083C9.02813 32.5581 9.59487 33.9503 10.6073 34.9879C11.6198 36.0255 12.9978 36.6262 14.4471 36.6617C15.9199 36.6608 17.3322 36.0752 18.3735 35.0336C19.4148 33.992 20 32.5795 20.0004 31.1067V14.4467H25.5537Z" fill="url(#paint0_linear_28:538)"/>
<path d="M25.5533 25.5533C28.6204 25.5533 31.1067 23.067 31.1067 20C31.1067 16.933 28.6204 14.4467 25.5533 14.4467C22.4863 14.4467 20 16.933 20 20C20 23.067 22.4863 25.5533 25.5533 25.5533Z" fill="url(#paint1_linear_28:538)"/>
<defs>
<linearGradient id="paint0_linear_28:538" x1="19.9652" y1="3.34167" x2="19.9652" y2="36.6617" gradientUnits="userSpaceOnUse">
<stop stop-color="#101940"/>
<stop offset="1" stop-color="#76A6FB"/>
</linearGradient>
<linearGradient id="paint1_linear_28:538" x1="25.5533" y1="14.4467" x2="25.5533" y2="25.5533" gradientUnits="userSpaceOnUse">
<stop stop-color="#101940"/>
<stop offset="1" stop-color="#76A6FB"/>
</linearGradient>
</defs>
</svg>
