<svg width="119" height="29" viewBox="0 0 119 29" fill="none" xmlns="http://www.w3.org/2000/svg">
<path d="M19.152 0.2V17.444L0 0.2V7.472L23.94 29V28.964V28.928V0.2H19.152ZM43.8609 0.2C39.8649 0.2 36.4809 1.64 33.7089 4.448C30.9009 7.256 29.4609 10.64 29.4609 14.6C29.4609 18.596 30.9009 21.944 33.7089 24.752C36.5169 27.56 39.8649 29 43.8609 29C47.8569 29 51.2049 27.56 54.0129 24.752C56.8569 21.98 58.2969 18.596 58.2969 14.6C58.2969 10.64 56.8569 7.256 54.0129 4.448C51.2049 1.64 47.8569 0.2 43.8609 0.2ZM43.8609 5.024C46.4889 5.024 48.7569 5.96 50.6289 7.832C52.5009 9.704 53.4369 11.972 53.4369 14.6C53.4369 17.228 52.5369 19.496 50.6289 21.404C48.7569 23.276 46.4889 24.176 43.8609 24.176C41.2329 24.176 38.9289 23.276 37.0569 21.404C35.1849 19.532 34.2849 17.228 34.2849 14.6C34.2849 11.972 35.1849 9.704 37.0569 7.832C38.9649 5.924 41.2329 5.024 43.8609 5.024ZM77.4059 0.2V17.444L58.2539 0.2V7.472L82.1939 29V28.964V28.928V0.2H77.4059ZM99.6668 19.424L103.915 10.964L108.127 19.424H113.527L103.915 0.2L89.5148 29H94.8428L97.2908 24.176L99.6668 19.424ZM115.903 24.212H110.575L112.951 29H118.315L115.903 24.212Z" fill="url(#paint0_linear)"/>
<defs>
<linearGradient id="paint0_linear" x1="-6.05" y1="16.918" x2="120.934" y2="10.463" gradientUnits="userSpaceOnUse">
<stop stop-color="#66C8AE"/>
<stop offset="1" stop-color="#76A4FF"/>
</linearGradient>
</defs>
</svg>
